<svg width="1025" height="179" viewBox="0 0 1025 179" fill="none" xmlns="http://www.w3.org/2000/svg">
<path d="M0.48 132L16.8 54.72H60.24C65.6 54.72 70 55.72 73.44 57.72C76.96 59.64 79.6 62.32 81.36 65.76C83.12 69.12 84 72.96 84 77.28C84 78.48 83.92 79.72 83.76 81C83.68 82.2 83.48 83.48 83.16 84.84C81.96 90.44 79.84 95.52 76.8 100.08C73.84 104.56 69.88 108.12 64.92 110.76C60.04 113.4 54.08 114.72 47.04 114.72H33.12L29.52 132H0.48ZM37.92 92.04H45C47.32 92.04 49.2 91.4 50.64 90.12C52.16 88.84 53.16 87.08 53.64 84.84C53.88 83.88 54 83.04 54 82.32C54 79.04 52.2 77.4 48.6 77.4H41.04L37.92 92.04Z" fill="white"/>
<path d="M332.48 132L348.8 54.72H377.84L373.28 76.32L394.76 54.72H427.52L394.4 86.76L413.6 132H382.88L372.68 105.12L365.72 111.84L361.52 132H332.48ZM489.91 132L506.23 54.72H568.03L563.59 75.6H530.83L529.39 82.56H557.59L553.03 104.16H524.83L523.27 111.12H556.03L551.71 132H489.91ZM628.589 132L644.909 54.72H681.629C688.029 54.72 693.709 55.88 698.669 58.2C703.629 60.52 707.509 63.88 710.309 68.28C713.189 72.6 714.629 77.88 714.629 84.12C714.629 85.64 714.509 87.2 714.269 88.8C714.109 90.4 713.829 92.08 713.429 93.84C711.429 102.72 708.509 110 704.669 115.68C700.829 121.28 695.709 125.4 689.309 128.04C682.989 130.68 674.989 132 665.309 132H628.589ZM662.309 109.92H666.629C669.829 109.92 672.509 109.52 674.669 108.72C676.909 107.92 678.749 106.36 680.189 104.04C681.709 101.72 682.949 98.32 683.909 93.84C684.309 92.24 684.549 90.84 684.629 89.64C684.789 88.36 684.869 87.2 684.869 86.16C684.869 82.88 683.909 80.8 681.989 79.92C680.149 78.96 677.229 78.48 673.229 78.48H668.909L662.309 109.92ZM783.441 132L799.761 54.72H861.561L857.121 75.6H824.361L822.921 82.56H851.121L846.561 104.16H818.361L816.801 111.12H849.561L845.241 132H783.441ZM916.554 132L954.114 92.52L934.314 54.72H968.994L976.554 69L990.234 54.72H1024.91L989.034 92.52L1010.03 132H974.874L966.594 116.28L951.714 132H916.554Z" fill="white"/>
<circle cx="204.5" cy="89.5" r="71.5" stroke="white" stroke-width="2"/>
<circle cx="204.5" cy="89.5001" r="34.3421" fill="white"/>
<rect x="223.579" y="85.6843" width="49.6053" height="7.63158" fill="white"/>
<rect x="135.816" y="85.6843" width="49.6053" height="7.63158" fill="white"/>
</svg>
